<svg xmlns="http://www.w3.org/2000/svg" xmlns:xlink="http://www.w3.org/1999/xlink" width="136.6" height="30.223" viewBox="0 0 136.6 30.223">
  <defs>
    <clipPath id="clip-path">
      <path id="Clip_5" data-name="Clip 5" d="M0,0H19.019V30.223H0Z" fill="none"/>
    </clipPath>
    <clipPath id="clip-path-2">
      <path id="Clip_8" data-name="Clip 8" d="M0,0H20.188V29.363H0Z" fill="none"/>
    </clipPath>
  </defs>
  <g id="Group_17" data-name="Group 17" transform="translate(0 -0.659)">
    <path id="Fill_1" data-name="Fill 1" d="M17.146,0,13.07,14.092,11.191,23.3h-.105L9.138,14.092,5.062,0H0L7.97,29.363h6.021L22.031,0Z" transform="translate(0 1.089)" fill="#231f20"/>
    <g id="Group_16" data-name="Group 16" transform="translate(30.212 0.659)">
      <path id="Fill_2" data-name="Fill 2" d="M5.383,29.364H0V0H11.723A6.979,6.979,0,0,1,14.8.673,6.751,6.751,0,0,1,17.16,2.587a9.123,9.123,0,0,1,1.5,2.966A13.01,13.01,0,0,1,19.2,9.381,11.588,11.588,0,0,1,18.082,14.6,6.789,6.789,0,0,1,14.7,17.836l4.851,11.525-5.984,0L9.245,18.594H5.383V29.363Zm0-23.811v7.656H11.05a2.484,2.484,0,0,0,1.9-.737,3.068,3.068,0,0,0,.691-2.166V8.456a3.077,3.077,0,0,0-.691-2.167,2.487,2.487,0,0,0-1.9-.736Z" transform="translate(28.068 0.43)" fill="#231f20"/>
      <g id="Group_6" data-name="Group 6" transform="translate(57.166 0)">
        <path id="Clip_5-2" data-name="Clip 5" d="M0,0H19.019V30.223H0Z" fill="none"/>
        <g id="Group_6-2" data-name="Group 6" clip-path="url(#clip-path)">
          <path id="Fill_4" data-name="Fill 4" d="M9.386,30.223A10.819,10.819,0,0,1,3.86,28.9,13.059,13.059,0,0,1,0,25.487l3.542-4.233a7.534,7.534,0,0,0,6.2,3.318,4.008,4.008,0,0,0,2.939-.954,3.414,3.414,0,0,0,.957-2.531,3.425,3.425,0,0,0-.566-2.011,3.391,3.391,0,0,0-2.3-1.1L8.323,17.6A8.8,8.8,0,0,1,2.568,14.8,9.017,9.017,0,0,1,.743,8.886a9.858,9.858,0,0,1,.637-3.6A7.956,7.956,0,0,1,3.2,2.474,8.18,8.18,0,0,1,6.11.649,11.031,11.031,0,0,1,10.023,0a11.015,11.015,0,0,1,4.924,1.048,10.226,10.226,0,0,1,3.648,3.061L15.017,8.387a7.483,7.483,0,0,0-2.143-1.969A6,6,0,0,0,9.7,5.651,4.111,4.111,0,0,0,7.013,6.4a2.562,2.562,0,0,0-.886,2.071,2.884,2.884,0,0,0,.691,2.156,4.372,4.372,0,0,0,2.249.952l2.444.462a9.684,9.684,0,0,1,5.666,2.786,8.579,8.579,0,0,1,1.842,5.887,11.239,11.239,0,0,1-.637,3.855,8.327,8.327,0,0,1-1.859,3.017,8.276,8.276,0,0,1-3.029,1.949,11.448,11.448,0,0,1-4.109.691" transform="translate(0 0)" fill="#231f20"/>
        </g>
      </g>
      <g id="Group_9" data-name="Group 9" transform="translate(86.2 0.431)">
        <path id="Clip_8-2" data-name="Clip 8" d="M0,0H20.188V29.363H0Z" transform="translate(0 0)" fill="none"/>
        <g id="Group_9-2" data-name="Group 9" transform="translate(0 0)" clip-path="url(#clip-path-2)">
          <path id="Fill_7" data-name="Fill 7" d="M20.189,29.363H10.874a10.625,10.625,0,0,1-4.462-.927,9.12,9.12,0,0,1-3.435-2.755A13.366,13.366,0,0,1,.78,21.1,23.787,23.787,0,0,1,0,14.681,23.787,23.787,0,0,1,.78,8.266a13.378,13.378,0,0,1,2.2-4.585A9.124,9.124,0,0,1,6.412.926,10.64,10.64,0,0,1,10.874,0h9.315V29.362ZM10.874,5.679a4.767,4.767,0,0,0-3.79,1.6C6.168,8.339,5.7,10.065,5.7,12.409v4.543c0,2.345.464,4.071,1.381,5.132a4.77,4.77,0,0,0,3.79,1.6h3.932v-18Z" transform="translate(0 0)" fill="#231f20"/>
        </g>
      </g>
      <path id="Fill_10" data-name="Fill 10" d="M10.093,0H6.142V0H0V4.857H5.384V4.843h4.709Z" transform="translate(0 12.497)" fill="#231f20"/>
      <path id="Fill_12" data-name="Fill 12" d="M5.383,4.856V4.842H14.86V0H0V4.856Z" transform="translate(0.001 0.43)" fill="#231f20"/>
      <path id="Fill_14" data-name="Fill 14" d="M6.142,0V.006H0V4.842H17.216V0Z" transform="translate(0.001 24.951)" fill="#231f20"/>
    </g>
  </g>
</svg>
